<svg width="16" height="16" viewBox="0 0 16 16" fill="none" xmlns="http://www.w3.org/2000/svg">
<path d="M1.60059 13.4639H14.3994" stroke="black" stroke-width="1.5" stroke-miterlimit="10" stroke-linecap="round" stroke-linejoin="round"/>
<path d="M1.60059 9.67773H7.36007" stroke="black" stroke-width="1.5" stroke-miterlimit="10" stroke-linecap="round" stroke-linejoin="round"/>
<path d="M1.60059 5.89258H5.44024" stroke="black" stroke-width="1.5" stroke-miterlimit="10" stroke-linecap="round" stroke-linejoin="round"/>
<path d="M1.60059 2.10547H4.16036" stroke="black" stroke-width="1.5" stroke-miterlimit="10" stroke-linecap="round" stroke-linejoin="round"/>
<path d="M13.5065 2.10547H7.61304C7.12192 2.10547 6.7201 2.50167 6.7201 2.98591V3.95439C6.7201 4.30657 6.94333 4.74679 7.16657 4.9669L9.0864 6.63974C9.35428 6.85985 9.53287 7.30007 9.53287 7.65224V9.54519C9.53287 9.80932 9.71146 10.1615 9.93469 10.2936L10.5598 10.6898C11.1402 11.0419 11.9438 10.6457 11.9438 9.94139V7.60822C11.9438 7.30007 12.1224 6.90387 12.301 6.68376L13.9976 4.92288C14.2208 4.70277 14.3994 4.30657 14.3994 4.04244V3.02993C14.3994 2.50167 13.9976 2.10547 13.5065 2.10547Z" stroke="black" stroke-width="1.5" stroke-miterlimit="10" stroke-linecap="round" stroke-linejoin="round"/>
</svg>
