<svg width="94" height="11" viewBox="0 0 94 11" fill="none" xmlns="http://www.w3.org/2000/svg">
<path d="M2.69312 10L0.764713 4.63038H0.083121V3.38357H3.32484V4.63038H2.61L3.84019 8.27108L5.05376 4.63038H4.33892V3.38357H7.56401V4.63038H6.81592L8.09599 8.28771L9.22643 4.63038H8.51159V3.38357H11.7367V4.63038H11.0218L9.09344 10H7.26478L5.90159 6.17643L4.53841 10H2.69312ZM15.8082 10.1829C15.0878 10.1829 14.4505 10.0388 13.8964 9.75064C13.3533 9.46248 12.9322 9.05796 12.633 8.53707C12.3337 8.0051 12.1841 7.39 12.1841 6.69178C12.1841 5.98248 12.3337 5.37293 12.633 4.86312C12.9322 4.34223 13.3533 3.93771 13.8964 3.64955C14.4505 3.3614 15.0878 3.21732 15.8082 3.21732C16.5397 3.21732 17.1769 3.3614 17.72 3.64955C18.2741 3.93771 18.7008 4.34223 19 4.86312C19.3104 5.37293 19.4655 5.97694 19.4655 6.67516C19.4655 7.37338 19.3104 7.98847 19 8.52045C18.7008 9.04134 18.2741 9.4514 17.72 9.75064C17.1769 10.0388 16.5397 10.1829 15.8082 10.1829ZM15.8082 8.65344C16.1628 8.65344 16.4676 8.57586 16.7225 8.4207C16.9885 8.25446 17.1935 8.02726 17.3376 7.73911C17.4817 7.43987 17.5537 7.08522 17.5537 6.67516C17.5537 6.27618 17.4817 5.93261 17.3376 5.64446C17.1935 5.35631 16.9885 5.13465 16.7225 4.97949C16.4676 4.82433 16.1628 4.74675 15.8082 4.74675C15.4646 4.74675 15.1654 4.82433 14.9105 4.97949C14.6556 5.13465 14.4561 5.36185 14.312 5.66108C14.1679 5.94924 14.0959 6.2928 14.0959 6.69178C14.0959 7.09076 14.1679 7.43987 14.312 7.73911C14.4561 8.02726 14.6556 8.25446 14.9105 8.4207C15.1654 8.57586 15.4646 8.65344 15.8082 8.65344ZM20.238 10V8.75318H21.2521V4.63038H20.238V3.38357H23.2636V5.3951H22.9976C23.1528 4.84095 23.3357 4.41427 23.5462 4.11503C23.7679 3.80471 24.0062 3.5886 24.2611 3.46669C24.5271 3.33369 24.7875 3.2672 25.0424 3.2672C25.2752 3.2672 25.4968 3.2949 25.7074 3.35032C25.918 3.39465 26.123 3.47223 26.3225 3.58306L25.8903 5.24548C25.7129 5.14573 25.5134 5.06261 25.2918 4.99611C25.0812 4.92962 24.854 4.89637 24.6102 4.89637C24.2777 4.89637 23.9729 5.01274 23.6959 5.24548C23.4188 5.47822 23.2803 5.83841 23.2803 6.32605L23.2636 8.75318H24.2943V10H20.238ZM26.8435 10V8.75318H27.8244V1.5549H26.8602V0.324713H29.8193V8.75318H30.7336V10H26.8435ZM34.5328 10.1829C33.9343 10.1829 33.3968 10.0443 32.9202 9.76726C32.4436 9.47911 32.0613 9.06904 31.7731 8.53707C31.4961 8.0051 31.3575 7.38446 31.3575 6.67516C31.3575 5.95478 31.4961 5.33968 31.7731 4.82987C32.0502 4.32006 32.4215 3.92662 32.887 3.64955C33.3635 3.3614 33.89 3.21732 34.4663 3.21732C34.9872 3.21732 35.4582 3.31707 35.8793 3.51656C36.3005 3.71605 36.6496 3.9765 36.9266 4.2979L36.5277 4.44752V1.5549H35.4471V0.324713H38.5392V8.75318H39.4369V10H36.644L36.6108 9.18541L37.1594 9.06904C36.8158 9.41261 36.4335 9.68414 36.0123 9.88363C35.5912 10.0831 35.098 10.1829 34.5328 10.1829ZM35.2144 8.67006C35.5579 8.67006 35.8682 8.60357 36.1453 8.47057C36.4335 8.33758 36.705 8.15471 36.9599 7.92197L36.5277 8.65344V4.81325L36.91 5.56134C36.6662 5.28427 36.3891 5.07924 36.0788 4.94624C35.7796 4.80217 35.4693 4.73013 35.1479 4.73013C34.8154 4.73013 34.5217 4.80771 34.2668 4.96287C34.0119 5.11803 33.8124 5.34522 33.6683 5.64446C33.5242 5.94369 33.4522 6.30943 33.4522 6.74166C33.4522 7.14064 33.5298 7.4842 33.6849 7.77236C33.8401 8.06051 34.0451 8.28217 34.3 8.43732C34.566 8.59248 34.8708 8.67006 35.2144 8.67006ZM43.018 10C42.3974 10 41.9263 9.84484 41.6049 9.53452C41.2835 9.21312 41.1228 8.72548 41.1228 8.07159V4.34777H40.0423V3.46669H41.1228V1.23904L42.353 0.756941V3.46669H44.0819V4.34777H42.353V8.0051C42.353 8.41516 42.4195 8.70331 42.5525 8.86955C42.6855 9.0358 42.9127 9.11892 43.2341 9.11892H44.2316V10H43.018ZM48.8162 10.1995C48.1291 10.1995 47.5029 10.0554 46.9377 9.76726C46.3835 9.47911 45.9402 9.07459 45.6077 8.55369C45.2863 8.0328 45.1256 7.42879 45.1256 6.74166C45.1256 6.03236 45.2808 5.4228 45.5911 4.91299C45.9014 4.3921 46.317 3.99312 46.8379 3.71605C47.3588 3.4279 47.9407 3.28382 48.5835 3.28382C49.2484 3.28382 49.8192 3.42236 50.2958 3.69943C50.7834 3.9765 51.1547 4.36994 51.4096 4.87974C51.6645 5.38955 51.7919 5.98802 51.7919 6.67516V6.99102H46.2062L46.2228 6.22631H50.5784C50.5784 5.79408 50.4897 5.42834 50.3124 5.12911C50.1461 4.81879 49.9134 4.58605 49.6142 4.43089C49.3149 4.26465 48.9714 4.18153 48.5835 4.18153C48.1734 4.18153 47.8021 4.28127 47.4696 4.48076C47.1372 4.66917 46.8712 4.94624 46.6717 5.31197C46.4833 5.66662 46.3891 6.09885 46.3891 6.60866C46.3891 7.15172 46.4888 7.62274 46.6883 8.02172C46.8878 8.40962 47.1649 8.71439 47.5195 8.93605C47.8852 9.14662 48.3008 9.25191 48.7663 9.25191C49.2651 9.25191 49.725 9.15217 50.1461 8.95268C50.5673 8.75318 50.933 8.50382 51.2433 8.20459L51.6756 8.95268C51.3763 9.29624 50.9884 9.58994 50.5119 9.83376C50.0353 10.0776 49.4701 10.1995 48.8162 10.1995ZM52.8216 10V9.11892H54.0352V1.33879H52.8548V0.474331H55.2653V9.11892H56.3293V10H52.8216ZM60.7973 10.1995C60.1102 10.1995 59.484 10.0554 58.9188 9.76726C58.3646 9.47911 57.9213 9.07459 57.5888 8.55369C57.2674 8.0328 57.1067 7.42879 57.1067 6.74166C57.1067 6.03236 57.2619 5.4228 57.5722 4.91299C57.8825 4.3921 58.2981 3.99312 58.819 3.71605C59.3399 3.4279 59.9218 3.28382 60.5646 3.28382C61.2295 3.28382 61.8003 3.42236 62.2769 3.69943C62.7645 3.9765 63.1358 4.36994 63.3907 4.87974C63.6456 5.38955 63.773 5.98802 63.773 6.67516V6.99102H58.1873L58.2039 6.22631H62.5595C62.5595 5.79408 62.4708 5.42834 62.2935 5.12911C62.1273 4.81879 61.8945 4.58605 61.5953 4.43089C61.296 4.26465 60.9525 4.18153 60.5646 4.18153C60.1545 4.18153 59.7832 4.28127 59.4508 4.48076C59.1183 4.66917 58.8523 4.94624 58.6528 5.31197C58.4644 5.66662 58.3702 6.09885 58.3702 6.60866C58.3702 7.15172 58.4699 7.62274 58.6694 8.02172C58.8689 8.40962 59.146 8.71439 59.5006 8.93605C59.8664 9.14662 60.282 9.25191 60.7474 9.25191C61.2462 9.25191 61.7061 9.15217 62.1273 8.95268C62.5484 8.75318 62.9141 8.50382 63.2244 8.20459L63.6567 8.95268C63.3574 9.29624 62.9695 9.58994 62.493 9.83376C62.0164 10.0776 61.4512 10.1995 60.7973 10.1995ZM68.3437 10.1662C67.6565 10.1662 67.0414 10.0166 66.4984 9.71739C65.9664 9.41815 65.5453 9.00809 65.2349 8.4872C64.9357 7.96631 64.7861 7.36783 64.7861 6.69178C64.7861 6.01573 64.9302 5.4228 65.2183 4.91299C65.5175 4.40318 65.9221 4.0042 66.4319 3.71605C66.9528 3.4279 67.5457 3.28382 68.2107 3.28382C68.8535 3.28382 69.3854 3.4279 69.8066 3.71605C70.2277 4.0042 70.4937 4.35885 70.6046 4.78H70.3718V3.43344H71.4025V5.77745H70.4716C70.3718 5.30089 70.1446 4.92962 69.79 4.66363C69.4464 4.38656 69.0142 4.24802 68.4933 4.24802C68.0167 4.24802 67.5956 4.35331 67.2298 4.56388C66.8641 4.76338 66.576 5.04599 66.3654 5.41172C66.1659 5.77745 66.0661 6.19306 66.0661 6.65853C66.0661 7.15726 66.1659 7.60057 66.3654 7.98847C66.576 8.36529 66.8586 8.66452 67.2132 8.88618C67.5789 9.09675 67.9946 9.20204 68.46 9.20204C69.0474 9.20204 69.5184 9.09121 69.8731 8.86955C70.2388 8.63682 70.5713 8.34866 70.8705 8.0051L71.3859 8.75318C71.0645 9.17433 70.6489 9.5179 70.1391 9.78389C69.6293 10.0388 69.0308 10.1662 68.3437 10.1662ZM76.0864 10.1995C75.3882 10.1995 74.7731 10.0554 74.2411 9.76726C73.7091 9.47911 73.2935 9.07459 72.9943 8.55369C72.7061 8.0328 72.5621 7.42325 72.5621 6.72503C72.5621 6.02681 72.7061 5.4228 72.9943 4.91299C73.2935 4.3921 73.7091 3.99312 74.2411 3.71605C74.7731 3.4279 75.3882 3.28382 76.0864 3.28382C76.7957 3.28382 77.4163 3.4279 77.9483 3.71605C78.4803 3.99312 78.8959 4.3921 79.1951 4.91299C79.4944 5.4228 79.644 6.02127 79.644 6.70841C79.644 7.40662 79.4944 8.01618 79.1951 8.53707C78.8959 9.05796 78.4803 9.46803 77.9483 9.76726C77.4163 10.0554 76.7957 10.1995 76.0864 10.1995ZM76.0864 9.23529C76.5519 9.23529 76.9564 9.13 77.3 8.91943C77.6435 8.70885 77.9095 8.41516 78.0979 8.03834C78.2863 7.66153 78.3805 7.21822 78.3805 6.70841C78.3805 6.20968 78.2863 5.77745 78.0979 5.41172C77.9095 5.04599 77.6435 4.76338 77.3 4.56388C76.9564 4.35331 76.5519 4.24802 76.0864 4.24802C75.632 4.24802 75.233 4.35331 74.8894 4.56388C74.557 4.76338 74.2965 5.05153 74.1081 5.42834C73.9197 5.79408 73.8255 6.22631 73.8255 6.72503C73.8255 7.22376 73.9197 7.66153 74.1081 8.03834C74.2965 8.41516 74.557 8.70885 74.8894 8.91943C75.233 9.13 75.632 9.23529 76.0864 9.23529ZM80.4184 10V9.11892H81.6819V4.34777H80.4184V3.46669H82.8954V4.28127L82.4466 4.41427C82.901 4.08178 83.3609 3.8158 83.8264 3.61631C84.3029 3.40573 84.7684 3.30045 85.2228 3.30045C85.8989 3.30045 86.4253 3.51102 86.8021 3.93217C87.1789 4.34223 87.3673 4.86866 87.3673 5.51146V9.11892H88.5643V10H85.0566V9.11892H86.1538V5.71095C86.1538 5.25656 86.0429 4.90191 85.8213 4.64701C85.5996 4.3921 85.2949 4.26465 84.907 4.26465C84.5412 4.26465 84.1367 4.35331 83.6934 4.53064C83.2612 4.70796 82.8345 4.9407 82.4133 5.22885L82.8954 4.74675V9.11892H84.0757V10H80.4184ZM89.595 10V9.11892H90.6922V5.71095C90.6922 5.25656 90.5814 4.90191 90.3597 4.64701C90.138 4.3921 89.8333 4.26465 89.4454 4.26465C89.0685 4.26465 88.6807 4.34777 88.2817 4.51401C87.8938 4.66917 87.5225 4.8742 87.1678 5.12911L86.9185 4.44752C87.384 4.11503 87.8439 3.8435 88.2983 3.63293C88.7527 3.41127 89.2403 3.30045 89.7612 3.30045C90.3486 3.30045 90.8529 3.48885 91.274 3.86567C91.6952 4.2314 91.9057 4.76892 91.9057 5.47822V9.11892H93.1027V10H89.595Z" fill="white"/>
</svg>
